<?xml version="1.0" standalone="no"?>
<!DOCTYPE svg PUBLIC "-//W3C//DTD SVG 20010904//EN"
 "http://www.w3.org/TR/2001/REC-SVG-20010904/DTD/svg10.dtd">
<svg version="1.0" xmlns="http://www.w3.org/2000/svg"
 width="391.000000pt" height="154.000000pt" viewBox="0 0 391.000000 154.000000"
 preserveAspectRatio="xMidYMid meet">

<g transform="translate(0.000000,154.000000) scale(0.100000,-0.100000)"
fill="#2c3f7c" stroke="none">
<path d="M593 1229 l-223 -170 0 66 0 65 -55 0 -55 0 0 -109 0 -108 -104 -79
-104 -78 31 -43 c17 -24 33 -43 36 -43 3 0 35 23 71 51 l65 51 3 -346 2 -346
560 0 560 0 0 345 c0 190 2 345 5 345 3 0 35 -23 72 -52 l66 -52 24 30 c13 16
28 36 33 44 6 12 -71 76 -371 305 -209 160 -383 291 -387 292 -4 1 -107 -75
-229 -168z m452 -137 l220 -168 3 -160 2 -159 -177 0 -178 0 0 -178 0 -177
-272 0 -273 0 0 334 0 335 223 170 c122 94 224 170 227 171 3 0 104 -76 225
-168z"/>
<path d="M520 815 l0 -45 300 0 300 0 0 45 0 45 -300 0 -300 0 0 -45z"/>
<path d="M520 645 l0 -45 145 0 145 0 0 45 0 45 -145 0 -145 0 0 -45z"/>
<path d="M520 485 l0 -45 145 0 145 0 0 45 0 45 -145 0 -145 0 0 -45z"/>
<path d="M2252 1118 c-51 -17 -118 -83 -138 -133 -35 -93 1 -206 84 -262 73
-49 191 -49 264 0 131 89 129 288 -4 370 -53 33 -148 44 -206 25z m157 -133
c25 -29 31 -45 31 -81 0 -39 -5 -51 -34 -80 -24 -24 -43 -34 -65 -34 -117 0
-164 144 -71 217 8 7 36 13 61 13 41 0 51 -4 78 -35z"/>
<path d="M1680 1070 l0 -50 65 0 65 0 0 -165 0 -165 60 0 60 0 0 165 0 165 65
0 65 0 0 50 0 50 -190 0 -190 0 0 -50z"/>
<path d="M2600 1070 l0 -50 65 0 65 0 0 -165 0 -165 60 0 60 0 0 165 0 165 65
0 65 0 0 50 0 50 -190 0 -190 0 0 -50z"/>
<path d="M3167 1088 c-114 -269 -151 -357 -158 -375 -8 -22 -7 -23 52 -23 l61
0 15 40 16 40 84 0 85 0 15 -40 16 -40 63 0 63 0 -43 103 c-24 56 -65 153 -91
215 l-48 112 -58 0 c-57 0 -59 -1 -72 -32z m101 -175 l21 -53 -50 0 c-28 0
-49 4 -47 8 2 4 12 31 22 60 11 29 23 49 26 45 4 -5 16 -32 28 -60z"/>
<path d="M3520 905 l0 -215 165 0 165 0 0 50 0 49 -102 3 -103 3 -3 163 -2
162 -60 0 -60 0 0 -215z"/>
<path d="M1812 558 c-116 -56 -154 -214 -79 -325 40 -58 93 -86 174 -91 70 -5
130 18 174 64 l24 25 -25 19 c-57 43 -68 45 -96 19 -32 -30 -93 -32 -125 -4
-101 90 -13 256 106 200 19 -10 35 -21 35 -26 0 -16 15 -10 58 23 l42 32 -23
24 c-59 64 -179 82 -265 40z"/>
<path d="M2160 360 l0 -210 170 0 170 0 0 45 0 44 -112 3 -113 3 0 35 0 35
103 3 102 3 0 44 0 45 -106 0 -105 0 3 33 3 32 113 3 112 3 0 44 0 45 -170 0
-170 0 0 -210z"/>
<path d="M2570 360 l0 -210 60 0 60 0 0 65 c0 62 1 65 24 65 18 0 33 -15 66
-65 l42 -65 69 0 70 0 -51 72 -50 72 29 18 c84 53 77 184 -12 238 -28 17 -51
20 -169 20 l-138 0 0 -210z m248 98 c17 -17 15 -54 -4 -72 -10 -11 -34 -16
-70 -16 l-54 0 0 50 0 50 58 0 c32 0 63 -5 70 -12z"/>
<path d="M2990 520 l0 -50 65 0 65 0 0 -160 0 -160 55 0 55 0 0 160 0 160 65
0 65 0 0 50 0 50 -185 0 -185 0 0 -50z"/>
</g>
</svg>
