<svg xmlns="http://www.w3.org/2000/svg" width="53.65937" height="58.19147" viewBox="0 0 53.65937 58.19147" creator="Katerina Limpitsouni"><path d="M18.28891,10.72246c-8.41525,3.30946-14.23381,11.71129-13.8571,20.82823,.39943,9.66663,7.14743,17.81011,16.42824,20.35227,9.39715,2.57403,19.67247-.88183,25.60087-8.58906,5.31731-6.91277,6.74081-16.58824,2.56092-24.41733-2.35165-4.40473-6.37745-7.45084-11.17231-8.76529-5.37979-1.4748-11.08656-.98396-16.56237-.43797-.95157,.09488-.96138,1.59586,0,1.5,8.24272-.82187,18.19849-1.58124,24.25042,5.27368,5.49296,6.22179,5.60928,15.69463,1.78876,22.76918-4.28567,7.93589-12.85142,12.60814-21.85036,11.94875-9.08865-.66597-17.01955-7.00846-19.05463-15.97557-2.16714-9.54898,3.16414-19.46088,12.26632-23.04049,.88815-.34928,.50141-1.80043-.39876-1.44642h0Z" fill="#16423c" origin="undraw"/><path d="M27.01958,21.8319l-1.2757,9.54303c-.05376,.4022,.38319,.75,.75,.75,.4499,0,.69607-.3466,.75-.75l1.2757-9.54303c.05376-.4022-.38319-.75-.75-.75-.4499,0-.69607,.3466-.75,.75h0Z" fill="#16423c"/><path d="M26.22331,32.25039c3.22481,3.57866,6.44963,7.15733,9.67444,10.73599,.64759,.71865,1.70567-.34487,1.06066-1.06066-3.22481-3.57866-6.44963-7.15733-9.67444-10.73599-.64759-.71865-1.70567,.34487-1.06066,1.06066h0Z" fill="#16423c"/><path d="M14.72365,49.07533c-1.99231,2.66253-3.98462,5.32505-5.97693,7.98758-.24285,.32455-.05256,.83803,.26906,1.02614,.38311,.22408,.78271,.05626,1.02614-.26906,1.99231-2.66253,3.98462-5.32505,5.97693-7.98758,.24285-.32455,.05256-.83803-.26906-1.02614-.38311-.22408-.78271-.05626-1.02614,.26906h0Z" fill="#16423c"/><path d="M38.89381,48.9597c1.66425,2.80432,3.5372,5.47906,5.20145,8.28338,.49226,.82947,1.7895,.07582,1.29521-.75708-1.66425-2.80432-3.5372-5.47906-5.20145-8.28338-.49226-.82947-1.7895-.07582-1.29521,.75708h0Z" fill="#16423c"/><path d="M4.35519,6.14137c2.82168,2.91191,5.64335,5.82381,8.46503,8.73572,.67299,.69451,1.73304-.36678,1.06066-1.06066-2.82168-2.91191-5.64335-5.82381-8.46503-8.73572-.67299-.69451-1.73304,.36678-1.06066,1.06066h0Z" fill="#16423c"/><path d="M2.80755,11.85058c3.41797-2.04176,6.56118-4.53405,9.32478-7.40011,.36832-.38198,.23016-.88522-.15179-1.17793l-.09551-.0732,.26906,.26906C10.62103,.97936,7.42238-.14224,4.62575,.57913,1.691,1.33613-.09614,4.1647,.004,7.12391c.05662,1.67318,.68986,3.30394,1.89051,4.48679l-.21967-.53033,.00418,.12261c.0328,.96264,1.53295,.96708,1.5,0-.02157-.63308-.63047-1.03442-.94446-1.55564-.31164-.51731-.51465-1.07843-.63413-1.66985-.23335-1.155-.08661-2.44077,.43597-3.50042,1.12073-2.27251,3.70882-3.0756,6.05355-2.34412,.60347,.18826,1.18658,.48127,1.6849,.87259,.28189,.22137,.54574,.48153,.76977,.76129,.2287,.28558,.38213,.57352,.67885,.80092l-.15179-1.17793c-2.67988,2.77925-5.70667,5.18559-9.0212,7.16556-.82793,.49457-.07447,1.79194,.75708,1.29521Z" fill="#16423c"/><path d="M48.24659,4.70986c-2.34598,2.421-4.69197,4.842-7.03795,7.263-.67209,.69358,.38738,1.75547,1.06066,1.06066,2.34598-2.421,4.69197-4.842,7.03795-7.263,.67209-.69358-.38738-1.75547-1.06066-1.06066h0Z" fill="#16423c"/><path d="M41.53011,4.07963c2.7636,2.86606,5.90682,5.35835,9.32478,7.40011,.50275,.30032,1.10953-.08958,1.12854-.6476l.00418-.12261-.21967,.53033c2.12504-2.09353,2.45264-5.58081,1.01722-8.14939-1.46579-2.62293-4.62946-3.61912-7.44551-2.82386-1.57689,.44532-2.9684,1.42997-3.8313,2.83096l.26906-.26906-.09551,.0732c-.32097,.24598-.49167,.64556-.26906,1.02614,.1848,.31595,.70263,.51699,1.02614,.26906,.48316-.37028,.76924-.96201,1.23175-1.37714,.42118-.37803,.92649-.68527,1.45037-.89869,1.08541-.44218,2.32055-.56211,3.46152-.28059,2.48426,.61297,3.80875,3.06943,3.5488,5.52492-.06794,.64171-.25649,1.28718-.55946,1.85723-.16219,.30517-.34995,.59825-.57903,.85755-.27137,.30717-.49456,.51355-.5095,.95196l1.12854-.6476c-3.31453-1.97997-6.34132-4.38632-9.0212-7.16556-.67132-.69621-1.73123,.36523-1.06066,1.06066Z" fill="#16423c"/></svg>